<mxfile host="app.diagrams.net" agent="Mozilla/5.0 (Windows NT 10.0; Win64; x64) AppleWebKit/537.36 (KHTML, like Gecko) Chrome/134.0.0.0 Safari/537.36 Edg/134.0.0.0" version="26.0.14">
  <diagram id="C5RBs43oDa-KdzZeNtuy" name="Page-1">
    <mxGraphModel dx="869" dy="631" grid="1" gridSize="10" guides="1" tooltips="1" connect="1" arrows="1" fold="1" page="1" pageScale="1" pageWidth="827" pageHeight="1169" math="0" shadow="0">
      <root>
        <mxCell id="WIyWlLk6GJQsqaUBKTNV-0" />
        <mxCell id="WIyWlLk6GJQsqaUBKTNV-1" parent="WIyWlLk6GJQsqaUBKTNV-0" />
        <mxCell id="zkfFHV4jXpPFQw0GAbJ--12" value="" style="endArrow=block;endSize=10;endFill=0;shadow=0;strokeWidth=1;rounded=0;curved=0;edgeStyle=elbowEdgeStyle;elbow=vertical;entryX=0.5;entryY=1;entryDx=0;entryDy=0;entryPerimeter=0;" parent="WIyWlLk6GJQsqaUBKTNV-1" target="3iEXsqRIn4CsdBkrPYX0-8" edge="1">
          <mxGeometry width="160" relative="1" as="geometry">
            <mxPoint x="180" y="610" as="sourcePoint" />
            <mxPoint x="190" y="480" as="targetPoint" />
            <Array as="points">
              <mxPoint x="160" y="550" />
              <mxPoint x="280" y="520" />
            </Array>
          </mxGeometry>
        </mxCell>
        <mxCell id="3iEXsqRIn4CsdBkrPYX0-5" value="Pegawai" style="swimlane;fontStyle=1;align=center;verticalAlign=top;childLayout=stackLayout;horizontal=1;startSize=26;horizontalStack=0;resizeParent=1;resizeParentMax=0;resizeLast=0;collapsible=1;marginBottom=0;whiteSpace=wrap;html=1;" vertex="1" parent="WIyWlLk6GJQsqaUBKTNV-1">
          <mxGeometry x="80" y="160" width="200" height="320" as="geometry" />
        </mxCell>
        <mxCell id="3iEXsqRIn4CsdBkrPYX0-6" value="- NIP&lt;span style=&quot;white-space: pre;&quot;&gt;&#x9;&lt;span style=&quot;white-space: pre;&quot;&gt;&#x9;&lt;/span&gt;&lt;/span&gt;: string&lt;div&gt;- nama&lt;span style=&quot;white-space: pre;&quot;&gt;&#x9;&lt;span style=&quot;white-space: pre;&quot;&gt;&#x9;&lt;/span&gt;&lt;/span&gt;: string&lt;/div&gt;&lt;div&gt;- tanggalLahir&lt;span style=&quot;white-space: pre;&quot;&gt;&#x9;&lt;/span&gt;: string&lt;/div&gt;&lt;div&gt;- TMT&lt;span style=&quot;white-space: pre;&quot;&gt;&#x9;&lt;/span&gt;&lt;span style=&quot;white-space: pre;&quot;&gt;&#x9;&lt;/span&gt;: String&lt;/div&gt;&lt;div&gt;- gajiPokok&lt;span style=&quot;white-space: pre;&quot;&gt;&#x9;&lt;/span&gt;: real&lt;/div&gt;" style="text;strokeColor=none;fillColor=none;align=left;verticalAlign=top;spacingLeft=4;spacingRight=4;overflow=hidden;rotatable=0;points=[[0,0.5],[1,0.5]];portConstraint=eastwest;whiteSpace=wrap;html=1;" vertex="1" parent="3iEXsqRIn4CsdBkrPYX0-5">
          <mxGeometry y="26" width="200" height="84" as="geometry" />
        </mxCell>
        <mxCell id="3iEXsqRIn4CsdBkrPYX0-7" value="" style="line;strokeWidth=1;fillColor=none;align=left;verticalAlign=middle;spacingTop=-1;spacingLeft=3;spacingRight=3;rotatable=0;labelPosition=right;points=[];portConstraint=eastwest;strokeColor=inherit;" vertex="1" parent="3iEXsqRIn4CsdBkrPYX0-5">
          <mxGeometry y="110" width="200" height="10" as="geometry" />
        </mxCell>
        <mxCell id="3iEXsqRIn4CsdBkrPYX0-8" value="+ Pegawai()&lt;div&gt;+ setNIP(NIP : string)&lt;/div&gt;&lt;div&gt;+ setNama(nama : string)&lt;/div&gt;&lt;div&gt;+ setTglLahir(tanggalLahir: string)&lt;/div&gt;&lt;div&gt;+ setTMT(TMT : string)&lt;/div&gt;&lt;div&gt;+ setGajiPokok(gajiPokok : real)&lt;/div&gt;&lt;div&gt;+ getNIP() : string&lt;/div&gt;&lt;div&gt;+ getNama() : string&lt;/div&gt;&lt;div&gt;+ getTMT() : string&lt;/div&gt;&lt;div&gt;+ getGajiPokok() : real&lt;/div&gt;&lt;div&gt;+ getTanggalLahir() : string&lt;/div&gt;&lt;div&gt;+ getMasaKerja() : period&lt;/div&gt;&lt;div&gt;+ printInfo()&lt;/div&gt;" style="text;strokeColor=none;fillColor=none;align=left;verticalAlign=top;spacingLeft=4;spacingRight=4;overflow=hidden;rotatable=0;points=[[0,0.5],[1,0.5]];portConstraint=eastwest;whiteSpace=wrap;html=1;" vertex="1" parent="3iEXsqRIn4CsdBkrPYX0-5">
          <mxGeometry y="120" width="200" height="200" as="geometry" />
        </mxCell>
        <mxCell id="3iEXsqRIn4CsdBkrPYX0-10" value="Dosen" style="swimlane;fontStyle=1;align=center;verticalAlign=top;childLayout=stackLayout;horizontal=1;startSize=26;horizontalStack=0;resizeParent=1;resizeParentMax=0;resizeLast=0;collapsible=1;marginBottom=0;whiteSpace=wrap;html=1;" vertex="1" parent="WIyWlLk6GJQsqaUBKTNV-1">
          <mxGeometry x="420" y="160" width="190" height="170" as="geometry" />
        </mxCell>
        <mxCell id="3iEXsqRIn4CsdBkrPYX0-11" value="- jabatan&lt;span style=&quot;white-space: pre;&quot;&gt;&#x9;&lt;/span&gt;: string&lt;div&gt;- fakultas&lt;span style=&quot;white-space: pre;&quot;&gt;&#x9;&lt;/span&gt;: string&lt;/div&gt;" style="text;strokeColor=none;fillColor=none;align=left;verticalAlign=top;spacingLeft=4;spacingRight=4;overflow=hidden;rotatable=0;points=[[0,0.5],[1,0.5]];portConstraint=eastwest;whiteSpace=wrap;html=1;" vertex="1" parent="3iEXsqRIn4CsdBkrPYX0-10">
          <mxGeometry y="26" width="190" height="34" as="geometry" />
        </mxCell>
        <mxCell id="3iEXsqRIn4CsdBkrPYX0-12" value="" style="line;strokeWidth=1;fillColor=none;align=left;verticalAlign=middle;spacingTop=-1;spacingLeft=3;spacingRight=3;rotatable=0;labelPosition=right;points=[];portConstraint=eastwest;strokeColor=inherit;" vertex="1" parent="3iEXsqRIn4CsdBkrPYX0-10">
          <mxGeometry y="60" width="190" height="10" as="geometry" />
        </mxCell>
        <mxCell id="3iEXsqRIn4CsdBkrPYX0-13" value="+ Dosen()&lt;div&gt;+ setJabatan(jabatan : string)&lt;/div&gt;&lt;div&gt;+ setFakultas(fakultas : string)&lt;/div&gt;&lt;div&gt;+ getJabatan() : string&lt;/div&gt;&lt;div&gt;+ getFakultas() : string&lt;/div&gt;&lt;div&gt;+ printInfo()&lt;/div&gt;" style="text;strokeColor=none;fillColor=none;align=left;verticalAlign=top;spacingLeft=4;spacingRight=4;overflow=hidden;rotatable=0;points=[[0,0.5],[1,0.5]];portConstraint=eastwest;whiteSpace=wrap;html=1;" vertex="1" parent="3iEXsqRIn4CsdBkrPYX0-10">
          <mxGeometry y="70" width="190" height="100" as="geometry" />
        </mxCell>
        <mxCell id="3iEXsqRIn4CsdBkrPYX0-14" value="Dosen Tetap" style="swimlane;fontStyle=1;align=center;verticalAlign=top;childLayout=stackLayout;horizontal=1;startSize=26;horizontalStack=0;resizeParent=1;resizeParentMax=0;resizeLast=0;collapsible=1;marginBottom=0;whiteSpace=wrap;html=1;" vertex="1" parent="WIyWlLk6GJQsqaUBKTNV-1">
          <mxGeometry x="310" y="400" width="150" height="160" as="geometry" />
        </mxCell>
        <mxCell id="3iEXsqRIn4CsdBkrPYX0-15" value="- NIDN : string" style="text;strokeColor=none;fillColor=none;align=left;verticalAlign=top;spacingLeft=4;spacingRight=4;overflow=hidden;rotatable=0;points=[[0,0.5],[1,0.5]];portConstraint=eastwest;whiteSpace=wrap;html=1;" vertex="1" parent="3iEXsqRIn4CsdBkrPYX0-14">
          <mxGeometry y="26" width="150" height="24" as="geometry" />
        </mxCell>
        <mxCell id="3iEXsqRIn4CsdBkrPYX0-16" value="" style="line;strokeWidth=1;fillColor=none;align=left;verticalAlign=middle;spacingTop=-1;spacingLeft=3;spacingRight=3;rotatable=0;labelPosition=right;points=[];portConstraint=eastwest;strokeColor=inherit;" vertex="1" parent="3iEXsqRIn4CsdBkrPYX0-14">
          <mxGeometry y="50" width="150" height="10" as="geometry" />
        </mxCell>
        <mxCell id="3iEXsqRIn4CsdBkrPYX0-17" value="+ DosenTetap()&lt;div&gt;+ setNIDN(NIDN : string)&lt;/div&gt;&lt;div&gt;+ getNIDN() : string&lt;/div&gt;&lt;div&gt;+ getBUP() : string&lt;/div&gt;&lt;div&gt;+ getTunjangan() : real&lt;/div&gt;&lt;div&gt;+ printInfo()&amp;nbsp;&lt;/div&gt;" style="text;strokeColor=none;fillColor=none;align=left;verticalAlign=top;spacingLeft=4;spacingRight=4;overflow=hidden;rotatable=0;points=[[0,0.5],[1,0.5]];portConstraint=eastwest;whiteSpace=wrap;html=1;" vertex="1" parent="3iEXsqRIn4CsdBkrPYX0-14">
          <mxGeometry y="60" width="150" height="100" as="geometry" />
        </mxCell>
        <mxCell id="3iEXsqRIn4CsdBkrPYX0-18" value="Dosen Tamu" style="swimlane;fontStyle=1;align=center;verticalAlign=top;childLayout=stackLayout;horizontal=1;startSize=26;horizontalStack=0;resizeParent=1;resizeParentMax=0;resizeLast=0;collapsible=1;marginBottom=0;whiteSpace=wrap;html=1;" vertex="1" parent="WIyWlLk6GJQsqaUBKTNV-1">
          <mxGeometry x="520" y="400" width="260" height="200" as="geometry" />
        </mxCell>
        <mxCell id="3iEXsqRIn4CsdBkrPYX0-19" value="- NIDK &lt;span style=&quot;white-space: pre;&quot;&gt;&#x9;&lt;/span&gt;&lt;span style=&quot;white-space: pre;&quot;&gt;&#x9;&lt;/span&gt;&amp;nbsp; &amp;nbsp; : string&lt;div&gt;- tglAkhirKontrak : string&lt;/div&gt;" style="text;strokeColor=none;fillColor=none;align=left;verticalAlign=top;spacingLeft=4;spacingRight=4;overflow=hidden;rotatable=0;points=[[0,0.5],[1,0.5]];portConstraint=eastwest;whiteSpace=wrap;html=1;" vertex="1" parent="3iEXsqRIn4CsdBkrPYX0-18">
          <mxGeometry y="26" width="260" height="40" as="geometry" />
        </mxCell>
        <mxCell id="3iEXsqRIn4CsdBkrPYX0-20" value="" style="line;strokeWidth=1;fillColor=none;align=left;verticalAlign=middle;spacingTop=-1;spacingLeft=3;spacingRight=3;rotatable=0;labelPosition=right;points=[];portConstraint=eastwest;strokeColor=inherit;" vertex="1" parent="3iEXsqRIn4CsdBkrPYX0-18">
          <mxGeometry y="66" width="260" height="10" as="geometry" />
        </mxCell>
        <mxCell id="3iEXsqRIn4CsdBkrPYX0-21" value="+ DosenTamu()&lt;div&gt;+ setNIDK(NIDK : string)&lt;/div&gt;&lt;div&gt;+ getNIDK() : string&lt;/div&gt;&lt;div&gt;+ setTglAkhirKontrak(tglAkhirKontrak : string)&lt;/div&gt;&lt;div&gt;+ getTglAKhirKontrak() : string&lt;/div&gt;&lt;div&gt;+ getMasaKontrak() : int&lt;/div&gt;&lt;div&gt;+ getTunjangan() : real&lt;/div&gt;&lt;div&gt;+ printInfo()&lt;/div&gt;" style="text;strokeColor=none;fillColor=none;align=left;verticalAlign=top;spacingLeft=4;spacingRight=4;overflow=hidden;rotatable=0;points=[[0,0.5],[1,0.5]];portConstraint=eastwest;whiteSpace=wrap;html=1;" vertex="1" parent="3iEXsqRIn4CsdBkrPYX0-18">
          <mxGeometry y="76" width="260" height="124" as="geometry" />
        </mxCell>
        <mxCell id="3iEXsqRIn4CsdBkrPYX0-22" value="Tendik" style="swimlane;fontStyle=1;align=center;verticalAlign=top;childLayout=stackLayout;horizontal=1;startSize=26;horizontalStack=0;resizeParent=1;resizeParentMax=0;resizeLast=0;collapsible=1;marginBottom=0;whiteSpace=wrap;html=1;" vertex="1" parent="WIyWlLk6GJQsqaUBKTNV-1">
          <mxGeometry x="80" y="600" width="200" height="180" as="geometry" />
        </mxCell>
        <mxCell id="3iEXsqRIn4CsdBkrPYX0-23" value="- jabatan&lt;span style=&quot;white-space: pre;&quot;&gt;&#x9;&lt;/span&gt;: string&lt;div&gt;- bidang&lt;span style=&quot;white-space: pre;&quot;&gt;&#x9;&lt;/span&gt;: string&lt;/div&gt;" style="text;strokeColor=none;fillColor=none;align=left;verticalAlign=top;spacingLeft=4;spacingRight=4;overflow=hidden;rotatable=0;points=[[0,0.5],[1,0.5]];portConstraint=eastwest;whiteSpace=wrap;html=1;" vertex="1" parent="3iEXsqRIn4CsdBkrPYX0-22">
          <mxGeometry y="26" width="200" height="34" as="geometry" />
        </mxCell>
        <mxCell id="3iEXsqRIn4CsdBkrPYX0-24" value="" style="line;strokeWidth=1;fillColor=none;align=left;verticalAlign=middle;spacingTop=-1;spacingLeft=3;spacingRight=3;rotatable=0;labelPosition=right;points=[];portConstraint=eastwest;strokeColor=inherit;" vertex="1" parent="3iEXsqRIn4CsdBkrPYX0-22">
          <mxGeometry y="60" width="200" height="10" as="geometry" />
        </mxCell>
        <mxCell id="3iEXsqRIn4CsdBkrPYX0-25" value="+ Tendik()&lt;div&gt;+ setJabatan(jabatan :string)&lt;/div&gt;&lt;div&gt;+ setBidang(bidang : string)&lt;/div&gt;&lt;div&gt;+ getJabatan() : string&lt;/div&gt;&lt;div&gt;+ getBidang() : string&lt;/div&gt;&lt;div&gt;+ getBUP() : string&lt;/div&gt;&lt;div&gt;+ getTunjangan() : string&lt;/div&gt;" style="text;strokeColor=none;fillColor=none;align=left;verticalAlign=top;spacingLeft=4;spacingRight=4;overflow=hidden;rotatable=0;points=[[0,0.5],[1,0.5]];portConstraint=eastwest;whiteSpace=wrap;html=1;" vertex="1" parent="3iEXsqRIn4CsdBkrPYX0-22">
          <mxGeometry y="70" width="200" height="110" as="geometry" />
        </mxCell>
        <mxCell id="3iEXsqRIn4CsdBkrPYX0-27" value="" style="endArrow=block;endSize=10;endFill=0;shadow=0;strokeWidth=1;rounded=0;curved=0;edgeStyle=elbowEdgeStyle;elbow=horizontal;exitX=0;exitY=0.5;exitDx=0;exitDy=0;entryX=1;entryY=-0.016;entryDx=0;entryDy=0;entryPerimeter=0;exitPerimeter=0;" edge="1" parent="WIyWlLk6GJQsqaUBKTNV-1" source="3iEXsqRIn4CsdBkrPYX0-13">
          <mxGeometry width="160" relative="1" as="geometry">
            <mxPoint x="420" y="283.2" as="sourcePoint" />
            <mxPoint x="280" y="279.99999999999994" as="targetPoint" />
            <Array as="points">
              <mxPoint x="350" y="283.2" />
              <mxPoint x="460" y="253.2" />
            </Array>
          </mxGeometry>
        </mxCell>
        <mxCell id="3iEXsqRIn4CsdBkrPYX0-28" value="" style="endArrow=block;endSize=10;endFill=0;shadow=0;strokeWidth=1;rounded=0;curved=0;edgeStyle=elbowEdgeStyle;elbow=vertical;exitX=0.549;exitY=0.02;exitDx=0;exitDy=0;exitPerimeter=0;" edge="1" parent="WIyWlLk6GJQsqaUBKTNV-1" source="3iEXsqRIn4CsdBkrPYX0-18">
          <mxGeometry width="160" relative="1" as="geometry">
            <mxPoint x="620" y="370" as="sourcePoint" />
            <mxPoint x="520" y="330" as="targetPoint" />
            <Array as="points">
              <mxPoint x="500" y="360" />
              <mxPoint x="600" y="370" />
            </Array>
          </mxGeometry>
        </mxCell>
        <mxCell id="3iEXsqRIn4CsdBkrPYX0-29" value="" style="endArrow=block;endSize=10;endFill=0;shadow=0;strokeWidth=1;rounded=0;curved=0;edgeStyle=elbowEdgeStyle;elbow=vertical;exitX=0.5;exitY=0;exitDx=0;exitDy=0;" edge="1" parent="WIyWlLk6GJQsqaUBKTNV-1">
          <mxGeometry width="160" relative="1" as="geometry">
            <mxPoint x="384" y="398" as="sourcePoint" />
            <mxPoint x="520" y="330" as="targetPoint" />
            <Array as="points">
              <mxPoint x="450" y="360" />
              <mxPoint x="599" y="368" />
            </Array>
          </mxGeometry>
        </mxCell>
        <mxCell id="3iEXsqRIn4CsdBkrPYX0-30" value="File&lt;span style=&quot;white-space: pre;&quot;&gt;&#x9;&lt;/span&gt;&lt;span style=&quot;white-space: pre;&quot;&gt;&#x9;&lt;/span&gt;: Diagram class pegawai&lt;div&gt;nama &lt;span style=&quot;white-space: pre;&quot;&gt;&#x9;&lt;/span&gt;: Muhammad Irfan Irsyad&lt;/div&gt;&lt;div&gt;NIM &lt;span style=&quot;white-space: pre;&quot;&gt;&#x9;&lt;/span&gt;: 24060123130085&lt;/div&gt;" style="rounded=1;whiteSpace=wrap;html=1;align=left;verticalAlign=top;spacingLeft=3;" vertex="1" parent="WIyWlLk6GJQsqaUBKTNV-1">
          <mxGeometry x="270" y="60" width="210" height="60" as="geometry" />
        </mxCell>
      </root>
    </mxGraphModel>
  </diagram>
</mxfile>
